<svg xmlns="http://www.w3.org/2000/svg" width="1600" height="1000" viewBox="0 0 1600 1000"><defs><linearGradient id="sky" y2="1"><stop stop-color="#071b2a"/><stop offset="1" stop-color="#16465b"/></linearGradient><linearGradient id="water" y2="1"><stop stop-color="#174d63"/><stop offset="1" stop-color="#0b2939"/></linearGradient><linearGradient id="hud"><stop stop-color="#23d2b0"/><stop offset="1" stop-color="#58a8ff"/></linearGradient></defs><rect width="1600" height="1000" fill="url(#sky)"/><rect y="560" width="1600" height="440" fill="url(#water)"/><g opacity=".65" stroke="#8dc7d8" stroke-width="3"><path d="M0 650 Q200 620 400 650 T800 650 T1200 650 T1600 650"/><path d="M0 760 Q200 730 400 760 T800 760 T1200 760 T1600 760"/><path d="M0 870 Q200 840 400 870 T800 870 T1200 870 T1600 870"/></g><g fill="#4d555c" stroke="#9baab0" stroke-width="4"><rect x="1130" y="285" width="300" height="275"/><path d="M1090 285 L1280 160 L1470 285Z" fill="#3b4146"/><rect x="1170" y="350" width="55" height="75" fill="#d7a84d"/><rect x="1280" y="350" width="55" height="75" fill="#d7a84d"/></g><g><ellipse cx="590" cy="660" rx="300" ry="55" fill="#07151e" opacity=".6"/><rect x="330" y="480" width="520" height="170" rx="38" fill="#53616a" stroke="#d5e2e5" stroke-width="7"/><rect x="405" y="510" width="370" height="70" rx="18" fill="#172c35" stroke="#6ca1ad" stroke-width="3"/><circle cx="400" cy="655" r="80" fill="#0a1117" stroke="#89979e" stroke-width="8"/><circle cx="780" cy="655" r="80" fill="#0a1117" stroke="#89979e" stroke-width="8"/><circle cx="400" cy="655" r="38" fill="#263944"/><circle cx="780" cy="655" r="38" fill="#263944"/><path d="M590 480 V300" stroke="#c6d0d4" stroke-width="18"/><rect x="530" y="240" width="120" height="60" rx="12" fill="#121d24" stroke="#b9cbd0" stroke-width="5"/><circle cx="570" cy="270" r="13" fill="#4be0d0"/><circle cx="615" cy="270" r="13" fill="#69a9ff"/></g><g stroke="#d7dde0" stroke-width="26" fill="none"><path d="M780 520 L950 390 L1090 310"/><path d="M1090 310 L1190 250"/></g><g fill="#e1b04d" stroke="#fff0b0" stroke-width="4"><circle cx="950" cy="390" r="25"/><circle cx="1090" cy="310" r="22"/></g><g fill="none" stroke="#27d5b2" stroke-width="6" stroke-dasharray="18 14"><path d="M780 520 C900 470 990 390 1190 250 C1250 205 1310 220 1360 180"/></g><g fill="#7ee8d2" font-family="Arial"><text x="70" y="75" font-size="44" font-weight="700">FLOOD RESCUE AI ROBOT</text><text x="72" y="112" font-size="22">REALISTIC 3D / 4D • AUTONOMOUS SEARCH, RESCUE &amp; SUPPLY</text></g><g font-family="Arial" font-size="20"><rect x="70" y="160" width="360" height="170" rx="20" fill="#06151f" stroke="#36cdb0" stroke-width="3"/><text x="100" y="205" fill="#a9eee0">RGB-D + LiDAR: ONLINE</text><text x="100" y="242" fill="#9ac9dc">THERMAL: ACTIVE</text><text x="100" y="279" fill="#e6c878">VICTIM TRACKING: ACTIVE</text><rect x="1120" y="650" width="410" height="190" rx="20" fill="#06151f" stroke="#4c9eff" stroke-width="3"/><text x="1150" y="695" fill="#b8d8ff">4D TRAJECTORY: LIVE</text><text x="1150" y="732" fill="#9ac9dc">SAFE ROUTE / CURRENT MODEL</text><text x="1150" y="769" fill="#a9eee0">AI MISSION: RESCUE</text><text x="1150" y="806" fill="#e6c878">E-STOP / SAFETY GATE READY</text></g><g font-family="Arial" fill="#dff8f3"><text x="330" y="930" font-size="24">AI perception → 3D world model → mission reasoning → safe navigation → victim approach → verification</text></g></svg>